# Blender v3.0.0 OBJ File: ''
# www.blender.org
mtllib Crate.mtl
o Cube_Cube.001
v 1.000000 -0.815520 -1.000000
v -1.000000 -0.815520 -1.000000
v -1.000000 0.833662 -1.000000
v 1.000000 0.833662 -1.000000
v 0.823589 -0.477746 -0.613504
v 0.823589 -0.598888 -0.734364
v 0.823589 0.612211 -0.734364
v 0.823589 0.612211 -0.613504
v -1.000000 1.000000 -1.000000
v -1.000000 1.000000 -0.835422
v 1.000000 1.000000 -0.835422
v 1.000000 1.000000 -1.000000
v -1.000000 0.833662 1.000000
v 1.000000 0.833662 1.000000
v 1.000000 1.000000 1.000000
v -1.000000 1.000000 1.000000
v -1.000000 -0.815520 1.000000
v 1.000000 -0.815520 1.000000
v 1.000000 -0.598888 -0.734364
v 1.000000 -0.734364 -0.734364
v 1.000000 -1.000000 -1.000000
v 1.000000 -0.734364 0.595778
v 1.000000 -0.734364 0.734364
v 1.000000 -1.000000 1.000000
v 1.000000 -1.000000 0.811285
v 1.000000 0.734364 -0.613504
v 1.000000 0.734364 -0.734364
v 1.000000 0.612211 0.734364
v 1.000000 0.734364 0.734364
v 0.823589 0.612211 0.473911
v 1.000000 0.612211 -0.734364
v 0.823589 0.734364 -0.734364
v 1.000000 -0.598888 0.734364
v 0.823589 -0.734364 0.734364
v 0.823589 -0.598888 0.734364
v 0.823589 0.612211 0.734364
v 0.823589 0.473759 0.595778
v 0.823589 0.612211 0.595778
v 0.823589 -0.734364 0.595778
v 0.823589 0.734364 -0.613504
v 0.823589 0.734364 0.595778
v 1.000000 0.734364 0.595778
v 1.000000 1.000000 0.811285
v 1.000000 -0.734364 -0.613504
v 1.000000 -1.000000 -0.835422
v -1.000000 -1.000000 -0.835422
v -1.000000 -1.000000 -1.000000
v -1.000000 1.000000 0.811285
v 0.823589 -0.598888 -0.613504
v 0.823589 -0.598888 -0.477899
v 0.823589 -0.598888 0.595778
v -1.000000 -1.000000 1.000000
v -1.000000 -1.000000 0.811285
v 0.823589 -0.734364 -0.613504
v -0.823589 -0.477746 -0.613504
v -0.823589 0.612211 -0.613504
v -0.823589 0.612211 -0.734364
v -0.823589 -0.598888 -0.734364
v -1.000000 -0.598888 -0.734364
v -1.000000 -0.734364 -0.734364
v -1.000000 -0.734364 0.595778
v -1.000000 -0.734364 0.734364
v -1.000000 0.734364 -0.613504
v -1.000000 0.734364 -0.734364
v -1.000000 0.612211 0.734364
v -1.000000 0.734364 0.734364
v -0.823589 0.612211 0.473911
v -1.000000 0.612211 -0.734364
v -0.823589 0.734364 -0.734364
v -1.000000 -0.598888 0.734364
v -0.823589 -0.598888 0.734364
v -0.823589 -0.734364 0.734364
v -0.823589 0.612211 0.734364
v -0.823589 0.612211 0.595778
v -0.823589 0.473759 0.595778
v -0.823589 -0.734364 0.595778
v -0.823589 0.734364 0.595778
v -0.823589 0.734364 -0.613504
v -1.000000 0.734364 0.595778
v -1.000000 -0.734364 -0.613504
v -0.823589 -0.598888 -0.613504
v -0.823589 -0.598888 -0.477899
v -0.823589 -0.598888 0.595778
v -0.823589 -0.734364 -0.613504
vt 0.652303 0.030084
vt 0.978454 0.030084
vt 0.978454 0.299026
vt 0.652303 0.299026
vt 0.345861 0.849968
vt 0.326151 0.869724
vt 0.326151 0.672223
vt 0.345861 0.672223
vt 0.326151 0.326151
vt 0.326151 0.352990
vt 0.000000 0.352990
vt 0.000000 0.326151
vt 0.326151 0.299026
vt 0.652303 0.299026
vt 0.652303 0.326151
vt 0.326151 0.326151
vt 0.326151 0.030084
vt 0.652303 0.030084
vt 0.608984 0.391563
vt 0.608984 0.369470
vt 0.652303 0.326151
vt 0.652303 0.356236
vt 0.392070 0.369470
vt 0.369470 0.369470
vt 0.326151 0.326151
vt 0.356926 0.326151
vt 0.589275 0.608984
vt 0.608984 0.608984
vt 0.652303 0.652303
vt 0.625464 0.652303
vt 0.369470 0.589064
vt 0.369470 0.608984
vt 0.326151 0.652303
vt 0.326151 0.625177
vt 0.523192 0.672223
vt 0.955522 0.763166
vt 0.955522 0.783086
vt 0.926753 0.783086
vt 0.926753 0.763166
vt 0.897985 0.587758
vt 0.897985 0.565665
vt 0.926753 0.565665
vt 0.926753 0.587758
vt 0.565665 0.672223
vt 0.543065 0.694801
vt 0.543065 0.672223
vt 0.565665 0.872107
vt 0.565665 0.849507
vt 0.594433 0.849507
vt 0.594433 0.872107
vt 0.345861 0.652303
vt 0.543065 0.652303
vt 0.392070 0.608984
vt 0.356926 0.652303
vt 0.589275 0.369470
vt 0.625464 0.326151
vt 0.326151 0.026839
vt 0.000000 0.026839
vt 0.000000 0.000000
vt 0.326151 0.000000
vt 0.326151 0.621528
vt 0.326151 0.652303
vt 0.000000 0.652303
vt 0.000000 0.621528
vt 0.681071 0.802795
vt 0.681071 1.000000
vt 0.652303 1.000000
vt 0.652303 0.802795
vt 0.345861 0.869724
vt 0.367975 0.869724
vt 0.543065 0.869724
vt 0.955522 0.565665
vt 0.926753 0.565665
vt 0.565665 0.869724
vt 0.369470 0.391563
vt 0.326151 0.356236
vt 0.608984 0.589064
vt 0.652303 0.625177
vt 0.978454 0.326151
vt 0.652303 0.326151
vt 0.326151 0.000000
vt 0.652303 0.000000
vt 0.326151 0.295377
vt 0.000000 0.295377
vt 0.543065 0.891816
vt 0.565665 0.891816
vt 0.345861 0.891816
vt 0.897985 0.785259
vt 0.926753 0.785259
vt 0.869217 0.785470
vt 0.869217 0.762870
vt 0.897985 0.785470
vt 0.681071 0.783086
vt 0.652303 0.783086
vt 0.652303 0.000000
vt 0.978454 0.000000
vt 0.326151 0.652303
vt 0.565665 0.652303
vt 0.594434 0.652303
vt 0.709840 0.811854
vt 0.729760 0.783086
vt 0.729760 0.811854
vt 0.984290 0.783086
vt 0.955522 0.783086
vt 0.955522 0.763331
vt 0.869217 0.587779
vt 0.869217 0.565665
vt 0.897985 0.565665
vt 0.955522 0.585585
vt 0.984290 0.565665
vt 0.672012 0.585421
vt 0.672012 0.763166
vt 0.652303 0.763166
vt 0.652303 0.565665
vt 0.043319 0.717714
vt 0.000000 0.682387
vt 0.000000 0.652303
vt 0.043319 0.695622
vt 0.260233 0.695622
vt 0.295377 0.652303
vt 0.326151 0.652303
vt 0.282833 0.695622
vt 0.063028 0.935135
vt 0.026839 0.978454
vt 0.000000 0.978454
vt 0.043319 0.935135
vt 0.282833 0.915215
vt 0.326151 0.951329
vt 0.326151 0.978454
vt 0.282833 0.935135
vt 0.849343 0.763166
vt 0.920585 0.523652
vt 0.949353 0.523652
vt 0.949353 0.543572
vt 0.920585 0.543572
vt 0.920585 0.348244
vt 0.891817 0.348244
vt 0.891817 0.326151
vt 0.920585 0.326151
vt 0.672223 0.565665
vt 0.672223 0.543065
vt 0.694801 0.543065
vt 0.651970 0.872107
vt 0.623202 0.872107
vt 0.623202 0.849507
vt 0.651970 0.849507
vt 0.869217 0.783086
vt 0.672012 0.783086
vt 0.295377 0.978454
vt 0.260233 0.935135
vt 0.063028 0.695622
vt 0.026839 0.652303
vt 0.681071 0.802796
vt 0.709840 0.802796
vt 0.709840 1.000000
vt 0.681071 1.000000
vt 0.869724 0.345861
vt 0.869724 0.367975
vt 0.672223 0.523192
vt 0.849968 0.345861
vt 0.869724 0.543065
vt 0.920585 0.326151
vt 0.949353 0.326151
vt 0.869724 0.565665
vt 0.282833 0.717714
vt 0.326151 0.682387
vt 0.000000 0.951329
vt 0.043319 0.915215
vt 0.891816 0.543065
vt 0.891816 0.565665
vt 0.891816 0.345861
vt 0.920585 0.545745
vt 0.891817 0.545745
vt 0.623202 0.872107
vt 0.594434 0.872107
vt 0.623202 0.849507
vt 0.869724 0.326151
vt 0.681071 0.783086
vt 0.709840 0.783086
vt 0.652303 0.783086
vt 0.623202 0.652303
vt 0.651970 0.652303
vt 0.652303 0.543065
vt 0.749680 0.811855
vt 0.729760 0.811855
vt 0.729760 0.783086
vt 0.978122 0.326151
vt 0.949353 0.345907
vt 0.623202 0.674417
vt 0.594434 0.652303
vt 0.949353 0.523652
vt 0.978122 0.543572
vt 0.000000 0.326151
vn 0.0000 0.0000 -1.0000
vn 1.0000 0.0000 0.0000
vn 0.0000 1.0000 0.0000
vn 0.0000 -0.0000 1.0000
vn 0.0000 -1.0000 -0.0000
vn 0.0000 -0.7074 0.7068
vn 0.0000 -0.7063 0.7079
vn -0.0000 0.7063 -0.7079
vn -1.0000 0.0000 0.0000
usemtl Material.001
s 1
f 1/1/1 2/2/1 3/3/1 4/4/1
f 5/5/2 6/6/2 7/7/2 8/8/2
f 9/9/3 10/10/3 11/11/3 12/12/3
f 13/13/4 14/14/4 15/15/4 16/16/4
f 17/17/4 18/18/4 14/14/4 13/13/4
f 19/19/2 20/20/2 21/21/2 1/22/2
f 22/23/2 23/24/2 24/25/2 25/26/2
f 26/27/2 27/28/2 12/29/2 11/30/2
f 28/31/2 29/32/2 15/33/2 14/34/2
f 30/35/2 5/5/2 8/8/2
f 31/36/4 27/37/4 32/38/4 7/39/4
f 33/40/1 23/41/1 34/42/1 35/43/1
f 36/44/2 37/45/2 38/46/2
f 23/47/3 22/48/3 39/49/3 34/50/3
f 8/8/2 40/51/2 41/52/2 30/35/2
f 29/32/2 42/53/2 43/54/2 15/33/2
f 44/55/2 22/23/2 25/26/2 45/56/2
f 45/57/5 46/58/5 47/59/5 21/60/5
f 48/61/3 16/62/3 15/63/3 43/64/3
f 26/65/5 42/66/5 41/67/5 40/68/5
f 49/69/2 5/5/2 30/35/2 38/46/2 37/45/2 50/70/2
f 50/70/2 37/45/2 51/71/2
f 19/72/4 31/36/4 7/39/4 6/73/4
f 51/71/2 37/45/2 36/44/2 35/74/2
f 33/75/2 28/31/2 14/34/2 18/76/2
f 27/28/2 31/77/2 4/78/2 12/29/2
f 4/4/1 3/3/1 9/79/1 12/80/1
f 52/81/4 24/82/4 18/18/4 17/17/4
f 25/83/5 53/84/5 46/58/5 45/57/5
f 10/10/3 48/61/3 43/64/3 11/11/3
f 23/24/2 33/75/2 18/76/2 24/25/2
f 39/85/2 51/71/2 35/74/2 34/86/2
f 50/70/2 51/71/2 39/85/2 54/87/2
f 54/87/2 49/69/2 50/70/2
f 28/88/1 33/40/1 35/43/1 36/89/1
f 31/77/2 19/19/2 1/22/2 4/78/2
f 36/90/6 37/91/6 28/92/6
f 6/6/2 5/5/2 49/69/2
f 27/93/5 26/65/5 40/68/5 32/94/5
f 21/95/1 47/96/1 2/2/1 1/1/1
f 20/20/2 44/55/2 45/56/2 21/21/2
f 7/7/2 32/97/2 40/51/2 8/8/2
f 22/48/3 44/98/3 54/99/3 39/49/3
f 42/53/2 26/27/2 11/30/2 43/54/2
f 30/35/2 41/52/2 38/46/2
f 30/100/7 42/101/7 41/102/7
f 19/103/8 6/104/8 5/105/8
f 50/106/6 54/107/6 44/108/6
f 30/109/8 42/110/8 19/103/8 5/105/8
f 28/92/6 37/91/6 50/106/6 44/108/6
f 29/32/2 28/31/2 42/53/2
f 20/20/2 19/19/2 44/55/2
f 44/55/2 19/19/2 42/53/2 28/31/2
f 55/111/9 56/112/9 57/113/9 58/114/9
f 59/115/9 2/116/9 47/117/9 60/118/9
f 61/119/9 53/120/9 52/121/9 62/122/9
f 63/123/9 10/124/9 9/125/9 64/126/9
f 65/127/9 13/128/9 16/129/9 66/130/9
f 67/131/9 56/112/9 55/111/9
f 68/132/4 57/133/4 69/134/4 64/135/4
f 70/136/1 71/137/1 72/138/1 62/139/1
f 73/140/9 74/141/9 75/142/9
f 62/143/3 72/144/3 76/145/3 61/146/3
f 56/112/9 67/131/9 77/147/9 78/148/9
f 66/130/9 16/129/9 48/149/9 79/150/9
f 80/151/9 46/152/9 53/120/9 61/119/9
f 63/153/5 78/154/5 77/155/5 79/156/5
f 81/157/9 82/158/9 75/142/9 74/141/9 67/159/9 55/160/9
f 82/158/9 83/161/9 75/142/9
f 59/162/4 58/163/4 57/133/4 68/132/4
f 83/161/9 71/164/9 73/140/9 75/142/9
f 70/165/9 17/166/9 13/128/9 65/127/9
f 64/126/9 9/125/9 3/167/9 68/168/9
f 62/122/9 52/121/9 17/166/9 70/165/9
f 76/169/9 72/170/9 71/164/9 83/161/9
f 82/158/9 84/171/9 76/169/9 83/161/9
f 84/171/9 82/158/9 81/157/9
f 65/172/1 73/173/1 71/137/1 70/136/1
f 68/168/9 3/167/9 2/116/9 59/115/9
f 73/174/6 65/175/6 75/176/6
f 58/177/9 81/157/9 55/160/9
f 64/178/5 69/179/5 78/154/5 63/153/5
f 60/118/9 47/117/9 46/152/9 80/151/9
f 57/113/9 56/112/9 78/148/9 69/180/9
f 61/146/3 76/145/3 84/181/3 80/182/3
f 79/150/9 48/149/9 10/124/9 63/123/9
f 67/159/9 74/141/9 77/183/9
f 67/184/7 77/185/7 79/186/7
f 59/187/8 55/188/8 58/163/8
f 82/189/6 80/190/6 84/181/6
f 67/191/8 55/188/8 59/187/8 79/192/8
f 65/175/6 80/190/6 82/189/6 75/176/6
f 66/130/9 79/150/9 65/127/9
f 60/118/9 80/151/9 59/115/9
f 80/151/9 65/127/9 79/150/9 59/115/9
f 24/25/5 52/193/5 53/84/5 25/83/5
