# This file uses centimeters as units for non-parametric coordinates.

mtllib Floor.mtl
g default
v -0.500000 0.000000 0.500000
v -0.400000 0.000000 0.500000
v -0.300000 0.000000 0.500000
v -0.200000 0.000000 0.500000
v -0.100000 0.000000 0.500000
v 0.000000 0.000000 0.500000
v 0.100000 0.000000 0.500000
v 0.200000 0.000000 0.500000
v 0.300000 0.000000 0.500000
v 0.400000 0.000000 0.500000
v 0.500000 0.000000 0.500000
v -0.500000 0.000000 0.400000
v -0.400000 0.000000 0.400000
v -0.300000 0.000000 0.400000
v -0.200000 0.000000 0.400000
v -0.100000 0.000000 0.400000
v 0.000000 0.000000 0.400000
v 0.100000 0.000000 0.400000
v 0.200000 0.000000 0.400000
v 0.300000 0.000000 0.400000
v 0.400000 0.000000 0.400000
v 0.500000 0.000000 0.400000
v -0.500000 0.000000 0.300000
v -0.400000 0.000000 0.300000
v -0.300000 0.000000 0.300000
v -0.200000 0.000000 0.300000
v -0.100000 0.000000 0.300000
v 0.000000 0.000000 0.300000
v 0.100000 0.000000 0.300000
v 0.200000 0.000000 0.300000
v 0.300000 0.000000 0.300000
v 0.400000 0.000000 0.300000
v 0.500000 0.000000 0.300000
v -0.500000 0.000000 0.200000
v -0.400000 0.000000 0.200000
v -0.300000 0.000000 0.200000
v -0.200000 0.000000 0.200000
v -0.100000 0.000000 0.200000
v 0.000000 0.000000 0.200000
v 0.100000 0.000000 0.200000
v 0.200000 0.000000 0.200000
v 0.300000 0.000000 0.200000
v 0.400000 0.000000 0.200000
v 0.500000 0.000000 0.200000
v -0.500000 0.000000 0.100000
v -0.400000 0.000000 0.100000
v -0.300000 0.000000 0.100000
v -0.200000 0.000000 0.100000
v -0.100000 0.000000 0.100000
v 0.000000 0.000000 0.100000
v 0.100000 0.000000 0.100000
v 0.200000 0.000000 0.100000
v 0.300000 0.000000 0.100000
v 0.400000 0.000000 0.100000
v 0.500000 0.000000 0.100000
v -0.500000 0.000000 0.000000
v -0.400000 0.000000 0.000000
v -0.300000 0.000000 0.000000
v -0.200000 0.000000 0.000000
v -0.100000 0.000000 0.000000
v 0.000000 0.000000 0.000000
v 0.100000 0.000000 0.000000
v 0.200000 0.000000 0.000000
v 0.300000 0.000000 0.000000
v 0.400000 0.000000 0.000000
v 0.500000 0.000000 0.000000
v -0.500000 0.000000 -0.100000
v -0.400000 0.000000 -0.100000
v -0.300000 0.000000 -0.100000
v -0.200000 0.000000 -0.100000
v -0.100000 0.000000 -0.100000
v 0.000000 0.000000 -0.100000
v 0.100000 0.000000 -0.100000
v 0.200000 0.000000 -0.100000
v 0.300000 0.000000 -0.100000
v 0.400000 0.000000 -0.100000
v 0.500000 0.000000 -0.100000
v -0.500000 0.000000 -0.200000
v -0.400000 0.000000 -0.200000
v -0.300000 0.000000 -0.200000
v -0.200000 0.000000 -0.200000
v -0.100000 0.000000 -0.200000
v 0.000000 0.000000 -0.200000
v 0.100000 0.000000 -0.200000
v 0.200000 0.000000 -0.200000
v 0.300000 0.000000 -0.200000
v 0.400000 0.000000 -0.200000
v 0.500000 0.000000 -0.200000
v -0.500000 0.000000 -0.300000
v -0.400000 0.000000 -0.300000
v -0.300000 0.000000 -0.300000
v -0.200000 0.000000 -0.300000
v -0.100000 0.000000 -0.300000
v 0.000000 0.000000 -0.300000
v 0.100000 0.000000 -0.300000
v 0.200000 0.000000 -0.300000
v 0.300000 0.000000 -0.300000
v 0.400000 0.000000 -0.300000
v 0.500000 0.000000 -0.300000
v -0.500000 0.000000 -0.400000
v -0.400000 0.000000 -0.400000
v -0.300000 0.000000 -0.400000
v -0.200000 0.000000 -0.400000
v -0.100000 0.000000 -0.400000
v 0.000000 0.000000 -0.400000
v 0.100000 0.000000 -0.400000
v 0.200000 0.000000 -0.400000
v 0.300000 0.000000 -0.400000
v 0.400000 0.000000 -0.400000
v 0.500000 0.000000 -0.400000
v -0.500000 0.000000 -0.500000
v -0.400000 0.000000 -0.500000
v -0.300000 0.000000 -0.500000
v -0.200000 0.000000 -0.500000
v -0.100000 0.000000 -0.500000
v 0.000000 0.000000 -0.500000
v 0.100000 0.000000 -0.500000
v 0.200000 0.000000 -0.500000
v 0.300000 0.000000 -0.500000
v 0.400000 0.000000 -0.500000
v 0.500000 0.000000 -0.500000
vt 0.005890 0.008593
vt 0.994110 0.008593
vt 0.994110 0.008593
vt 0.994110 0.008593
vt 0.994110 0.008593
vt 0.994110 0.008592
vt 0.994110 0.008593
vt 0.994110 0.008592
vt 0.994110 0.008593
vt 0.994110 0.008593
vt 0.994110 0.008593
vt 0.005890 0.008592
vt 0.005889 0.008592
vt 0.005890 0.008592
vt 0.005889 0.008593
vt 0.005890 0.008592
vt 0.005889 0.008593
vt 0.005890 0.008592
vt 0.005889 0.008592
vt 0.005889 0.008592
vt 0.005890 0.008592
vt 0.994110 0.996814
vt 0.005890 0.008592
vt 0.005889 0.008593
vt 0.005890 0.008592
vt 0.005889 0.008593
vt 0.005889 0.008593
vt 0.005889 0.008593
vt 0.005890 0.008593
vt 0.005889 0.008593
vt 0.005889 0.008593
vt 0.005890 0.008592
vt 0.994110 0.996814
vt 0.005890 0.008593
vt 0.005889 0.008592
vt 0.005890 0.008592
vt 0.005889 0.008593
vt 0.005890 0.008593
vt 0.005889 0.008592
vt 0.005890 0.008592
vt 0.005890 0.008592
vt 0.005890 0.008592
vt 0.005890 0.008592
vt 0.994110 0.996814
vt 0.005890 0.008593
vt 0.005889 0.008593
vt 0.005890 0.008593
vt 0.005889 0.008593
vt 0.005890 0.008593
vt 0.005890 0.008593
vt 0.005890 0.008592
vt 0.005890 0.008593
vt 0.005890 0.008593
vt 0.005890 0.008592
vt 0.994110 0.996814
vt 0.005890 0.008593
vt 0.005889 0.008593
vt 0.005890 0.008593
vt 0.005889 0.008593
vt 0.005889 0.008593
vt 0.005890 0.008593
vt 0.005890 0.008592
vt 0.005890 0.008592
vt 0.005890 0.008592
vt 0.005890 0.008592
vt 0.994110 0.996814
vt 0.005890 0.008593
vt 0.005889 0.008593
vt 0.005889 0.008593
vt 0.005889 0.008593
vt 0.005889 0.008593
vt 0.005889 0.008593
vt 0.005890 0.008593
vt 0.005890 0.008593
vt 0.005889 0.008593
vt 0.005890 0.008593
vt 0.994110 0.996814
vt 0.005889 0.008593
vt 0.005889 0.008593
vt 0.005890 0.008592
vt 0.005890 0.008593
vt 0.005889 0.008592
vt 0.005889 0.008592
vt 0.005890 0.008593
vt 0.005889 0.008593
vt 0.005890 0.008592
vt 0.005890 0.008592
vt 0.994110 0.996814
vt 0.005890 0.008592
vt 0.005889 0.008593
vt 0.005890 0.008592
vt 0.005889 0.008593
vt 0.005890 0.008592
vt 0.005889 0.008592
vt 0.005890 0.008592
vt 0.005889 0.008592
vt 0.005889 0.008592
vt 0.005890 0.008592
vt 0.994110 0.996814
vt 0.005890 0.008593
vt 0.005889 0.008593
vt 0.005890 0.008593
vt 0.005889 0.008593
vt 0.005889 0.008593
vt 0.005890 0.008593
vt 0.005890 0.008593
vt 0.005889 0.008593
vt 0.005889 0.008593
vt 0.005890 0.008593
vt 0.994110 0.996814
vt 0.005890 0.996814
vt 0.005889 0.996814
vt 0.005890 0.996814
vt 0.005889 0.996814
vt 0.005889 0.996814
vt 0.005890 0.996814
vt 0.005890 0.996814
vt 0.005889 0.996814
vt 0.005889 0.996814
vt 0.005890 0.996814
vt 0.994110 0.996814
vt 0.994110 0.996814
vt 0.994110 0.996814
vt 0.994110 0.996814
vt 0.994110 0.996814
vt 0.994111 0.996814
vt 0.994111 0.996814
vt 0.994110 0.996814
vt 0.994110 0.996814
vt 0.994110 0.996814
vt 0.994110 0.008593
vt 0.005890 0.996814
vt 0.994110 0.996814
vt 0.994110 0.008593
vt 0.005889 0.996814
vt 0.994110 0.996814
vt 0.994110 0.008593
vt 0.005889 0.996814
vt 0.994110 0.996814
vt 0.994110 0.008593
vt 0.005890 0.996814
vt 0.994110 0.996814
vt 0.994110 0.008593
vt 0.005889 0.996814
vt 0.994110 0.996814
vt 0.994111 0.008593
vt 0.005890 0.996814
vt 0.994110 0.996814
vt 0.994111 0.008593
vt 0.005889 0.996814
vt 0.994110 0.996814
vt 0.994110 0.008593
vt 0.005890 0.996814
vt 0.994110 0.996814
vt 0.994110 0.008593
vt 0.005889 0.996814
vt 0.994110 0.996814
vt 0.994110 0.008593
vt 0.005890 0.996814
vt 0.994110 0.008592
vt 0.005890 0.996814
vt 0.994110 0.996814
vt 0.994110 0.008592
vt 0.005890 0.996814
vt 0.994110 0.996814
vt 0.994110 0.008592
vt 0.005889 0.996814
vt 0.994110 0.996814
vt 0.994110 0.008592
vt 0.005890 0.996814
vt 0.994110 0.996814
vt 0.994110 0.008592
vt 0.005889 0.996814
vt 0.994110 0.996814
vt 0.994110 0.008592
vt 0.005889 0.996814
vt 0.994110 0.996814
vt 0.994110 0.008593
vt 0.005890 0.996814
vt 0.994110 0.996814
vt 0.994110 0.008592
vt 0.005890 0.996814
vt 0.994111 0.996814
vt 0.994110 0.008593
vt 0.005889 0.996814
vt 0.994110 0.996814
vt 0.994110 0.008592
vt 0.005889 0.996814
vt 0.994110 0.008592
vt 0.005890 0.996814
vt 0.994110 0.996814
vt 0.994110 0.008592
vt 0.005889 0.996814
vt 0.994110 0.996813
vt 0.994110 0.008593
vt 0.005890 0.996813
vt 0.994110 0.996813
vt 0.994110 0.008593
vt 0.005890 0.996813
vt 0.994110 0.996813
vt 0.994110 0.008592
vt 0.005889 0.996813
vt 0.994111 0.996814
vt 0.994110 0.008592
vt 0.005889 0.996814
vt 0.994111 0.996813
vt 0.994110 0.008593
vt 0.005889 0.996813
vt 0.994110 0.996813
vt 0.994110 0.008592
vt 0.005889 0.996813
vt 0.994110 0.996814
vt 0.994111 0.008593
vt 0.005889 0.996814
vt 0.994111 0.996814
vt 0.994110 0.008593
vt 0.005890 0.996814
vt 0.994110 0.008593
vt 0.005890 0.996814
vt 0.994110 0.996814
vt 0.994110 0.008593
vt 0.005890 0.996814
vt 0.994110 0.996814
vt 0.994110 0.008593
vt 0.005890 0.996814
vt 0.994110 0.996814
vt 0.994110 0.008593
vt 0.005890 0.996814
vt 0.994110 0.996814
vt 0.994110 0.008593
vt 0.005890 0.996814
vt 0.994110 0.996814
vt 0.994111 0.008593
vt 0.005889 0.996814
vt 0.994110 0.996814
vt 0.994111 0.008593
vt 0.005889 0.996814
vt 0.994110 0.996814
vt 0.994110 0.008593
vt 0.005890 0.996814
vt 0.994111 0.996814
vt 0.994110 0.008593
vt 0.005889 0.996814
vt 0.994110 0.996814
vt 0.994111 0.008593
vt 0.005890 0.996814
vt 0.994110 0.008592
vt 0.005890 0.996814
vt 0.994110 0.996814
vt 0.994110 0.008592
vt 0.005890 0.996814
vt 0.994110 0.996814
vt 0.994110 0.008592
vt 0.005890 0.996814
vt 0.994110 0.996814
vt 0.994110 0.008592
vt 0.005890 0.996814
vt 0.994110 0.996814
vt 0.994110 0.008593
vt 0.005890 0.996814
vt 0.994110 0.996814
vt 0.994110 0.008593
vt 0.005890 0.996814
vt 0.994110 0.996814
vt 0.994110 0.008593
vt 0.005889 0.996814
vt 0.994110 0.996814
vt 0.994110 0.008593
vt 0.005890 0.996814
vt 0.994111 0.996814
vt 0.994111 0.008593
vt 0.005889 0.996814
vt 0.994110 0.996814
vt 0.994110 0.008593
vt 0.005890 0.996814
vt 0.994110 0.008592
vt 0.005890 0.996814
vt 0.994110 0.996814
vt 0.994110 0.008593
vt 0.005890 0.996814
vt 0.994110 0.996814
vt 0.994110 0.008593
vt 0.005890 0.996814
vt 0.994110 0.996814
vt 0.994110 0.008592
vt 0.005890 0.996814
vt 0.994110 0.996814
vt 0.994110 0.008593
vt 0.005889 0.996814
vt 0.994110 0.996814
vt 0.994110 0.008593
vt 0.005890 0.996814
vt 0.994110 0.996814
vt 0.994110 0.008593
vt 0.005889 0.996814
vt 0.994110 0.996814
vt 0.994110 0.008593
vt 0.005890 0.996814
vt 0.994110 0.996814
vt 0.994111 0.008593
vt 0.005889 0.996814
vt 0.994110 0.996814
vt 0.994110 0.008593
vt 0.005890 0.996814
vt 0.994110 0.008592
vt 0.005890 0.996814
vt 0.994110 0.996814
vt 0.994110 0.008592
vt 0.005889 0.996814
vt 0.994110 0.996814
vt 0.994110 0.008592
vt 0.005889 0.996814
vt 0.994110 0.996814
vt 0.994110 0.008592
vt 0.005890 0.996814
vt 0.994110 0.996814
vt 0.994110 0.008592
vt 0.005889 0.996814
vt 0.994110 0.996814
vt 0.994110 0.008593
vt 0.005889 0.996814
vt 0.994110 0.996814
vt 0.994110 0.008593
vt 0.005889 0.996814
vt 0.994110 0.996814
vt 0.994110 0.008592
vt 0.005890 0.996814
vt 0.994110 0.996814
vt 0.994110 0.008592
vt 0.005889 0.996814
vt 0.994110 0.996814
vt 0.994110 0.008593
vt 0.005890 0.996814
vt 0.994110 0.008592
vt 0.005890 0.996814
vt 0.994110 0.996814
vt 0.994110 0.008593
vt 0.005889 0.996814
vt 0.994110 0.996814
vt 0.994110 0.008593
vt 0.005889 0.996814
vt 0.994110 0.996814
vt 0.994110 0.008593
vt 0.005890 0.996814
vt 0.994110 0.996814
vt 0.994110 0.008593
vt 0.005889 0.996814
vt 0.994110 0.996814
vt 0.994110 0.008593
vt 0.005890 0.996814
vt 0.994110 0.996814
vt 0.994110 0.008593
vt 0.005889 0.996814
vt 0.994110 0.996814
vt 0.994110 0.008592
vt 0.005890 0.996814
vt 0.994110 0.996814
vt 0.994110 0.008593
vt 0.005889 0.996814
vt 0.994110 0.996814
vt 0.994110 0.008592
vt 0.005890 0.996814
vt 0.994110 0.008592
vt 0.005890 0.996814
vt 0.994110 0.996814
vt 0.994110 0.008592
vt 0.005889 0.996814
vt 0.994110 0.996814
vt 0.994110 0.008592
vt 0.005889 0.996814
vt 0.994110 0.996814
vt 0.994110 0.008592
vt 0.005890 0.996814
vt 0.994110 0.996814
vt 0.994110 0.008593
vt 0.005890 0.996814
vt 0.994110 0.996814
vt 0.994110 0.008592
vt 0.005890 0.996814
vt 0.994110 0.996814
vt 0.994110 0.008593
vt 0.005889 0.996814
vt 0.994110 0.996814
vt 0.994110 0.008592
vt 0.005890 0.996814
vt 0.994110 0.996814
vt 0.994110 0.008592
vt 0.005889 0.996814
vt 0.994110 0.996814
vt 0.994110 0.008592
vt 0.005890 0.996814
vt 0.005890 0.008593
vt 0.005889 0.008593
vt 0.005889 0.008593
vt 0.005890 0.008592
vt 0.005890 0.008593
vt 0.005890 0.008592
vt 0.005889 0.008593
vt 0.005890 0.008593
vt 0.005889 0.008593
vn 0.000000 1.000000 0.000000
vn 0.000000 1.000000 0.000000
vn 0.000000 1.000000 0.000000
vn 0.000000 1.000000 0.000000
vn 0.000000 1.000000 0.000000
vn 0.000000 1.000000 0.000000
vn 0.000000 1.000000 0.000000
vn 0.000000 1.000000 0.000000
vn 0.000000 1.000000 0.000000
vn 0.000000 1.000000 0.000000
vn 0.000000 1.000000 0.000000
vn 0.000000 1.000000 0.000000
vn 0.000000 1.000000 0.000000
vn 0.000000 1.000000 0.000000
vn 0.000000 1.000000 0.000000
vn 0.000000 1.000000 0.000000
vn 0.000000 1.000000 0.000000
vn 0.000000 1.000000 0.000000
vn 0.000000 1.000000 0.000000
vn 0.000000 1.000000 0.000000
vn 0.000000 1.000000 0.000000
vn 0.000000 1.000000 0.000000
vn 0.000000 1.000000 0.000000
vn 0.000000 1.000000 0.000000
vn 0.000000 1.000000 0.000000
vn 0.000000 1.000000 0.000000
vn 0.000000 1.000000 0.000000
vn 0.000000 1.000000 0.000000
vn 0.000000 1.000000 0.000000
vn 0.000000 1.000000 0.000000
vn 0.000000 1.000000 0.000000
vn 0.000000 1.000000 0.000000
vn 0.000000 1.000000 0.000000
vn 0.000000 1.000000 0.000000
vn 0.000000 1.000000 0.000000
vn 0.000000 1.000000 0.000000
vn 0.000000 1.000000 0.000000
vn 0.000000 1.000000 0.000000
vn 0.000000 1.000000 0.000000
vn 0.000000 1.000000 0.000000
vn 0.000000 1.000000 0.000000
vn 0.000000 1.000000 0.000000
vn 0.000000 1.000000 0.000000
vn 0.000000 1.000000 0.000000
vn 0.000000 1.000000 0.000000
vn 0.000000 1.000000 0.000000
vn 0.000000 1.000000 0.000000
vn 0.000000 1.000000 0.000000
vn 0.000000 1.000000 0.000000
vn 0.000000 1.000000 0.000000
vn 0.000000 1.000000 0.000000
vn 0.000000 1.000000 0.000000
vn 0.000000 1.000000 0.000000
vn 0.000000 1.000000 0.000000
vn 0.000000 1.000000 0.000000
vn 0.000000 1.000000 0.000000
vn 0.000000 1.000000 0.000000
vn 0.000000 1.000000 0.000000
vn 0.000000 1.000000 0.000000
vn 0.000000 1.000000 0.000000
vn 0.000000 1.000000 0.000000
vn 0.000000 1.000000 0.000000
vn 0.000000 1.000000 0.000000
vn 0.000000 1.000000 0.000000
vn 0.000000 1.000000 0.000000
vn 0.000000 1.000000 0.000000
vn 0.000000 1.000000 0.000000
vn 0.000000 1.000000 0.000000
vn 0.000000 1.000000 0.000000
vn 0.000000 1.000000 0.000000
vn 0.000000 1.000000 0.000000
vn 0.000000 1.000000 0.000000
vn 0.000000 1.000000 0.000000
vn 0.000000 1.000000 0.000000
vn 0.000000 1.000000 0.000000
vn 0.000000 1.000000 0.000000
vn 0.000000 1.000000 0.000000
vn 0.000000 1.000000 0.000000
vn 0.000000 1.000000 0.000000
vn 0.000000 1.000000 0.000000
vn 0.000000 1.000000 0.000000
vn 0.000000 1.000000 0.000000
vn 0.000000 1.000000 0.000000
vn 0.000000 1.000000 0.000000
vn 0.000000 1.000000 0.000000
vn 0.000000 1.000000 0.000000
vn 0.000000 1.000000 0.000000
vn 0.000000 1.000000 0.000000
vn 0.000000 1.000000 0.000000
vn 0.000000 1.000000 0.000000
vn 0.000000 1.000000 0.000000
vn 0.000000 1.000000 0.000000
vn 0.000000 1.000000 0.000000
vn 0.000000 1.000000 0.000000
vn 0.000000 1.000000 0.000000
vn 0.000000 1.000000 0.000000
vn 0.000000 1.000000 0.000000
vn 0.000000 1.000000 0.000000
vn 0.000000 1.000000 0.000000
vn 0.000000 1.000000 0.000000
vn 0.000000 1.000000 0.000000
vn 0.000000 1.000000 0.000000
vn 0.000000 1.000000 0.000000
vn 0.000000 1.000000 0.000000
vn 0.000000 1.000000 0.000000
vn 0.000000 1.000000 0.000000
vn 0.000000 1.000000 0.000000
vn 0.000000 1.000000 0.000000
vn 0.000000 1.000000 0.000000
vn 0.000000 1.000000 0.000000
vn 0.000000 1.000000 0.000000
vn 0.000000 1.000000 0.000000
vn 0.000000 1.000000 0.000000
vn 0.000000 1.000000 0.000000
vn 0.000000 1.000000 0.000000
vn 0.000000 1.000000 0.000000
vn 0.000000 1.000000 0.000000
vn 0.000000 1.000000 0.000000
vn 0.000000 1.000000 0.000000
vn 0.000000 1.000000 0.000000
vn 0.000000 1.000000 0.000000
s 1
g pPlane1
usemtl initialShadingGroup
f 1/1/1 2/2/2 12/391/3
f 12/391/3 2/2/2 13/389/4
f 2/400/2 3/3/5 13/388/4
f 13/388/4 3/3/5 14/386/6
f 3/399/5 4/4/7 14/385/6
f 14/385/6 4/4/7 15/383/8
f 4/398/7 5/5/9 15/382/8
f 15/382/8 5/5/9 16/380/10
f 5/397/9 6/6/11 16/379/10
f 16/379/10 6/6/11 17/377/12
f 6/396/11 7/7/13 17/376/12
f 17/376/12 7/7/13 18/374/14
f 7/395/13 8/8/15 18/373/14
f 18/373/14 8/8/15 19/371/16
f 8/394/15 9/9/17 19/370/16
f 19/370/16 9/9/17 20/368/18
f 9/393/17 10/10/19 20/367/18
f 20/367/18 10/10/19 21/365/20
f 10/392/19 11/11/21 21/364/20
f 21/364/20 11/11/21 22/22/22
f 12/12/3 13/390/4 23/362/23
f 23/362/23 13/390/4 24/360/24
f 13/13/4 14/387/6 24/359/24
f 24/359/24 14/387/6 25/357/25
f 14/14/6 15/384/8 25/356/25
f 25/356/25 15/384/8 26/354/26
f 15/15/8 16/381/10 26/353/26
f 26/353/26 16/381/10 27/351/27
f 16/16/10 17/378/12 27/350/27
f 27/350/27 17/378/12 28/348/28
f 17/17/12 18/375/14 28/347/28
f 28/347/28 18/375/14 29/345/29
f 18/18/14 19/372/16 29/344/29
f 29/344/29 19/372/16 30/342/30
f 19/19/16 20/369/18 30/341/30
f 30/341/30 20/369/18 31/339/31
f 20/20/18 21/366/20 31/338/31
f 31/338/31 21/366/20 32/336/32
f 21/21/20 22/363/22 32/335/32
f 32/335/32 22/363/22 33/33/33
f 23/23/23 24/361/24 34/333/34
f 34/333/34 24/361/24 35/331/35
f 24/24/24 25/358/25 35/330/35
f 35/330/35 25/358/25 36/328/36
f 25/25/25 26/355/26 36/327/36
f 36/327/36 26/355/26 37/325/37
f 26/26/26 27/352/27 37/324/37
f 37/324/37 27/352/27 38/322/38
f 27/27/27 28/349/28 38/321/38
f 38/321/38 28/349/28 39/319/39
f 28/28/28 29/346/29 39/318/39
f 39/318/39 29/346/29 40/316/40
f 29/29/29 30/343/30 40/315/40
f 40/315/40 30/343/30 41/313/41
f 30/30/30 31/340/31 41/312/41
f 41/312/41 31/340/31 42/310/42
f 31/31/31 32/337/32 42/309/42
f 42/309/42 32/337/32 43/307/43
f 32/32/32 33/334/33 43/306/43
f 43/306/43 33/334/33 44/44/44
f 34/34/34 35/332/35 45/304/45
f 45/304/45 35/332/35 46/302/46
f 35/35/35 36/329/36 46/301/46
f 46/301/46 36/329/36 47/299/47
f 36/36/36 37/326/37 47/298/47
f 47/298/47 37/326/37 48/296/48
f 37/37/37 38/323/38 48/295/48
f 48/295/48 38/323/38 49/293/49
f 38/38/38 39/320/39 49/292/49
f 49/292/49 39/320/39 50/290/50
f 39/39/39 40/317/40 50/289/50
f 50/289/50 40/317/40 51/287/51
f 40/40/40 41/314/41 51/286/51
f 51/286/51 41/314/41 52/284/52
f 41/41/41 42/311/42 52/283/52
f 52/283/52 42/311/42 53/281/53
f 42/42/42 43/308/43 53/280/53
f 53/280/53 43/308/43 54/278/54
f 43/43/43 44/305/44 54/277/54
f 54/277/54 44/305/44 55/55/55
f 45/45/45 46/303/46 56/275/56
f 56/275/56 46/303/46 57/273/57
f 46/46/46 47/300/47 57/272/57
f 57/272/57 47/300/47 58/270/58
f 47/47/47 48/297/48 58/269/58
f 58/269/58 48/297/48 59/267/59
f 48/48/48 49/294/49 59/266/59
f 59/266/59 49/294/49 60/264/60
f 49/49/49 50/291/50 60/263/60
f 60/263/60 50/291/50 61/261/61
f 50/50/50 51/288/51 61/260/61
f 61/260/61 51/288/51 62/258/62
f 51/51/51 52/285/52 62/257/62
f 62/257/62 52/285/52 63/255/63
f 52/52/52 53/282/53 63/254/63
f 63/254/63 53/282/53 64/252/64
f 53/53/53 54/279/54 64/251/64
f 64/251/64 54/279/54 65/249/65
f 54/54/54 55/276/55 65/248/65
f 65/248/65 55/276/55 66/66/66
f 56/56/56 57/274/57 67/246/67
f 67/246/67 57/274/57 68/244/68
f 57/57/57 58/271/58 68/243/68
f 68/243/68 58/271/58 69/241/69
f 58/58/58 59/268/59 69/240/69
f 69/240/69 59/268/59 70/238/70
f 59/59/59 60/265/60 70/237/70
f 70/237/70 60/265/60 71/235/71
f 60/60/60 61/262/61 71/234/71
f 71/234/71 61/262/61 72/232/72
f 61/61/61 62/259/62 72/231/72
f 72/231/72 62/259/62 73/229/73
f 62/62/62 63/256/63 73/228/73
f 73/228/73 63/256/63 74/226/74
f 63/63/63 64/253/64 74/225/74
f 74/225/74 64/253/64 75/223/75
f 64/64/64 65/250/65 75/222/75
f 75/222/75 65/250/65 76/220/76
f 65/65/65 66/247/66 76/219/76
f 76/219/76 66/247/66 77/77/77
f 67/67/67 68/245/68 78/217/78
f 78/217/78 68/245/68 79/215/79
f 68/68/68 69/242/69 79/214/79
f 79/214/79 69/242/69 80/212/80
f 69/69/69 70/239/70 80/211/80
f 80/211/80 70/239/70 81/209/81
f 70/70/70 71/236/71 81/208/81
f 81/208/81 71/236/71 82/206/82
f 71/71/71 72/233/72 82/205/82
f 82/205/82 72/233/72 83/203/83
f 72/72/72 73/230/73 83/202/83
f 83/202/83 73/230/73 84/200/84
f 73/73/73 74/227/74 84/199/84
f 84/199/84 74/227/74 85/197/85
f 74/74/74 75/224/75 85/196/85
f 85/196/85 75/224/75 86/194/86
f 75/75/75 76/221/76 86/193/86
f 86/193/86 76/221/76 87/191/87
f 76/76/76 77/218/77 87/190/87
f 87/190/87 77/218/77 88/88/88
f 78/78/78 79/216/79 89/188/89
f 89/188/89 79/216/79 90/186/90
f 79/79/79 80/213/80 90/185/90
f 90/185/90 80/213/80 91/183/91
f 80/80/80 81/210/81 91/182/91
f 91/182/91 81/210/81 92/180/92
f 81/81/81 82/207/82 92/179/92
f 92/179/92 82/207/82 93/177/93
f 82/82/82 83/204/83 93/176/93
f 93/176/93 83/204/83 94/174/94
f 83/83/83 84/201/84 94/173/94
f 94/173/94 84/201/84 95/171/95
f 84/84/84 85/198/85 95/170/95
f 95/170/95 85/198/85 96/168/96
f 85/85/85 86/195/86 96/167/96
f 96/167/96 86/195/86 97/165/97
f 86/86/86 87/192/87 97/164/97
f 97/164/97 87/192/87 98/162/98
f 87/87/87 88/189/88 98/161/98
f 98/161/98 88/189/88 99/99/99
f 89/89/89 90/187/90 100/159/100
f 100/159/100 90/187/90 101/157/101
f 90/90/90 91/184/91 101/156/101
f 101/156/101 91/184/91 102/154/102
f 91/91/91 92/181/92 102/153/102
f 102/153/102 92/181/92 103/151/103
f 92/92/92 93/178/93 103/150/103
f 103/150/103 93/178/93 104/148/104
f 93/93/93 94/175/94 104/147/104
f 104/147/104 94/175/94 105/145/105
f 94/94/94 95/172/95 105/144/105
f 105/144/105 95/172/95 106/142/106
f 95/95/95 96/169/96 106/141/106
f 106/141/106 96/169/96 107/139/107
f 96/96/96 97/166/97 107/138/107
f 107/138/107 97/166/97 108/136/108
f 97/97/97 98/163/98 108/135/108
f 108/135/108 98/163/98 109/133/109
f 98/98/98 99/160/99 109/132/109
f 109/132/109 99/160/99 110/110/110
f 100/100/100 101/158/101 111/111/111
f 111/111/111 101/158/101 112/130/112
f 101/101/101 102/155/102 112/112/112
f 112/112/112 102/155/102 113/129/113
f 102/102/102 103/152/103 113/113/113
f 113/113/113 103/152/103 114/128/114
f 103/103/103 104/149/104 114/114/114
f 114/114/114 104/149/104 115/127/115
f 104/104/104 105/146/105 115/115/115
f 115/115/115 105/146/105 116/126/116
f 105/105/105 106/143/106 116/116/116
f 116/116/116 106/143/106 117/125/117
f 106/106/106 107/140/107 117/117/117
f 117/117/117 107/140/107 118/124/118
f 107/107/107 108/137/108 118/118/118
f 118/118/118 108/137/108 119/123/119
f 108/108/108 109/134/109 119/119/119
f 119/119/119 109/134/109 120/122/120
f 109/109/109 110/131/110 120/120/120
f 120/120/120 110/131/110 121/121/121
